<svg viewBox="0 0 1124.43 429.56" xmlns="http://www.w3.org/2000/svg"><path d="m858.75 246.89c8-.63 14.19 6.74 12.15 14.5-2.12 8.06-12.2 11.23-18.64 5.87-7.95-6.63-3.8-19.55 6.49-20.37zm-.42 2.38c-3.52.39-6.78 3.41-7.61 6.81-1.94 7.93 6.43 14.32 13.57 10.32 8.69-4.86 4.48-18.3-5.96-17.13z"/><path d="m865.93 256.78h-3.01c-2.17-3.88-8-1.37-6.58 2.79 1.05 3.09 5.27 3.07 6.72.28h3.01c-1.21 4.75-6.99 6.66-10.73 3.36-2.94-2.6-2.85-7.39.23-9.85 3.65-2.92 9.33-1.17 10.36 3.41z"/><g fill="#1d1d1b"><text font-family="Formiga-Black, Formiga" font-size="38" font-weight="800" transform="translate(322.25 175.26)"><tspan letter-spacing="-.03em" x="0" y="0">L</tspan><tspan letter-spacing="-.02em" x="22.15" y="0">u</tspan><tspan letter-spacing="-.01em" x="45.64" y="0">c</tspan><tspan letter-spacing="-.02em" x="66.31" y="0">a</tspan><tspan letter-spacing="-.02em" x="89.91" y="0">s</tspan><tspan letter-spacing="-.05em" x="118.41" y="0">P</tspan><tspan letter-spacing="-.03em" x="143.11" y="0">o</tspan><tspan letter-spacing="-.02em" x="165.91" y="0">th</tspan><tspan letter-spacing="-.02em" x="207.63" y="0">i</tspan><tspan letter-spacing="-.02em" x="220.32" y="0">n</tspan></text><path d="m289.27 191.71c-14.78 0-23.74 10.09-23.74 23.59 0 14.92 9.24 23.45 23.17 23.45 11.23 0 18.19-2.84 27-6.4l.29 31.13c-8.96 5.26-19.47 9.38-35.25 9.38-30.13 0-52.02-19.9-52.02-57.56 0-35.39 24.02-57.57 53.73-57.57 13.22 0 22.17 2.56 31.27 6.96v31.55c-7.11-2.42-14.07-4.55-24.45-4.55z"/><path d="m389.62 188.15v31.55c-4.97-1.85-9.81-2.7-15.49-2.7-10.94 0-17.34 4.55-17.34 18.9v33.83h-34.54c.85-8.53 1.42-15.78 1.42-25.58l.14-29.56c0-11.66-.14-18.05-1.56-27.29h34.25c-2.56 9.67-3.41 14.21-3.55 25.16h3.7c.71-17.06 7.96-26.86 21.18-26.86 4.26 0 8.53.85 11.8 2.56z"/><path d="m391.75 228.38c0-26.15 17.2-42.78 43.78-42.78 21.75 0 34.82 10.09 34.82 25.58 0 18.33-15.35 24.3-43.92 24.73 1.56 6.54 6.25 10.09 14.78 10.09 9.24 0 16.92-1.56 27.15-5.83l.14 23.59c-8.39 4.26-19.9 7.96-34.96 7.96-27.01 0-41.79-16.77-41.79-43.35zm34.11-3.27c11.8-.43 18.05-2.84 18.05-9.95 0-4.69-2.13-8.24-7.96-8.24-7.25 0-10.09 7.25-10.09 15.49z"/><path d="m508.59 210.75c-7.96 0-19.19 3.13-29.14 7.53v-23.45c10.09-5.26 21.18-9.24 36.67-9.24 17.62 0 38.66 6.25 38.66 36.96v19.9c0 10.23.43 17.34 1.56 27.29h-34.68c2.27-8.39 3.13-13.08 3.27-21.6h-3.55c-1.56 14.64-10.52 23.59-25.3 23.59-13.36 0-23.74-7.82-23.74-22.88 0-21.89 20.47-28.71 49.18-29.14 0-6.54-4.26-8.95-12.93-8.95zm2.84 34.97c6.96 0 10.09-4.98 10.09-11.66v-4.55c-10.38.43-17.62 2.99-17.62 9.38 0 4.83 2.98 6.82 7.53 6.82z"/><path d="m598.56 169.68v17.62h17.77v23.17h-17.77v23.31c0 6.68 3.7 8.67 8.53 8.67s8.1-1.14 11.94-2.7v25.87c-6.4 3.7-14.78 6.25-25.58 6.25-17.62 0-27.86-7.67-27.86-27.01v-34.4h-9.24v-23.03h10.23c13.3-1.85 23.08-10.94 23.08-17.77h8.9z"/><path d="m626.27 269.74c1.56-15.63 1.85-24.16 1.85-36.1v-8.24c0-13.79-.28-25.44-1.85-38.09h36.1c-.85 8.1-1.14 14.36-1.14 22.6v36.96c0 9.81.14 14.78 1.14 22.88h-36.1z"/><path d="m750.22 227.95c0 20.89-10.23 43.78-41.65 43.78s-41.79-18.19-41.79-43.78c0-27.43 15.21-42.78 41.65-42.78 29.71 0 41.79 16.2 41.79 42.78zm-51.6-.14c0 12.65 2.7 19.05 10.09 19.05s9.52-6.54 9.52-19.05c0-13.79-2.98-19.19-9.52-19.19s-10.09 5.4-10.09 19.19z"/><path d="m802.39 226.67c0-10.09-1.28-14.78-6.96-14.78s-7.82 5.12-7.82 14.92v42.92h-32.98c.57-8.67 1.14-16.91 1.14-26.72v-32.98c0-8.1-.57-15.92-1.14-22.74h32.83c-2.42 8.39-3.41 12.22-3.55 21.6h3.7c1.28-15.63 9.38-23.59 22.88-23.59 18.76 0 23.74 14.78 23.74 32.98v24.73c0 12.79 0 15.63 1 26.72h-33.69c.85-10.94.85-14.21.85-26.72v-16.35z"/><path d="m651.85 178.47-8.33-4.98-8.38 4.9-1.3-9.62-9.05-3.49 6.71-7.01-2.91-9.26 9.66.87 5.42-8.05 5.35 8.11 9.67-.78-3 9.23 6.64 7.07-9.09 3.41z"/></g></svg>